<svg width="32" height="32" viewBox="0 0 32 32" fill="none" xmlns="http://www.w3.org/2000/svg">
<path d="M22.3511 13.4883L16.9995 31.4289C16.8358 32.1774 15.236 32.1859 15.0142 31.4822L9.64453 13.4883H22.3502H22.3511Z" fill="#7ED957"/>
<path d="M22.3521 12.3471H9.64648L11.589 5.33635C11.687 5.05676 11.9383 4.83612 12.2485 4.85419C14.6393 5.02632 17.3232 4.63641 19.6777 4.85419C20.028 4.88653 20.2945 4.97307 20.4058 5.3392L22.3521 12.3462V12.3471Z" fill="#7ED957"/>
<path d="M31.9165 13.4883C31.8413 13.9467 31.6119 14.3613 31.3435 14.735C27.7298 19.0773 24.2959 23.567 20.7079 27.9302C20.0179 28.769 19.3355 29.6715 18.5332 30.3933L23.565 13.4883H31.9165Z" fill="#7ED957"/>
<path d="M8.43348 13.4883L13.4653 30.6073L0.623567 14.6942C0.372309 14.3299 0.152459 13.9295 0.0820312 13.4883H8.43348Z" fill="#7ED957"/>
<path d="M10.5035 4.85791L8.43348 12.3471H0.0820312C0.0953555 12.1331 0.181011 11.9039 0.261909 11.7061C0.628325 10.8121 3.76047 6.78749 4.5428 5.92684C5.02437 5.39713 5.95136 4.85791 6.68515 4.85791H10.5035Z" fill="#7ED957"/>
<path d="M31.9176 12.3471H23.5661L21.4961 4.85791H25.3144C25.8455 4.85791 26.6868 5.23356 27.097 5.57306C28.4542 7.37426 30.174 9.23347 31.4046 11.1117C31.6492 11.4854 31.8624 11.8953 31.9166 12.348L31.9176 12.3471Z" fill="#7ED957"/>
<path d="M3.84458 23.9873C4.64974 23.8114 4.62975 24.8651 4.89624 25.4024C5.22078 26.0577 5.95932 26.7881 6.62078 27.1028C7.15375 27.3567 8.23872 27.3453 7.97224 28.1851C7.85137 28.5664 6.95769 28.6663 6.57414 28.8565C5.9184 29.1808 5.18747 29.9188 4.87245 30.5797C4.61833 31.1123 4.62975 32.1964 3.78937 31.9301C3.40773 31.8084 3.3078 30.9164 3.11745 30.5331C2.77673 29.8455 2.08578 29.1637 1.39291 28.8327C0.859945 28.5788 -0.225029 28.5902 0.0414555 27.7505C0.163277 27.3691 1.056 27.2693 1.43955 27.0791C2.12765 26.7386 2.81004 26.0482 3.14125 25.3558C3.33064 24.9583 3.39441 24.0863 3.84458 23.9883V23.9873Z" fill="#7ED957"/>
<path d="M28.9694 0.0221502C29.7232 -0.142373 29.688 0.668832 29.9497 1.15194C30.1477 1.51618 30.4779 1.84617 30.8424 2.04398C31.3307 2.30836 32.2053 2.29219 31.955 3.07962C31.8417 3.43625 31.187 3.49331 30.8424 3.67971C30.4779 3.87752 30.1477 4.20751 29.9497 4.57175C29.6851 5.05961 29.7013 5.93358 28.9133 5.68347C28.5554 5.5703 28.4888 4.87702 28.288 4.52515C28.0367 4.08483 27.6884 3.79478 27.2287 3.58651C26.849 3.41438 26.2941 3.44386 26.2703 2.89703C26.2446 2.28459 26.8604 2.30741 27.2763 2.11531C27.7322 1.90609 28.0729 1.59416 28.3118 1.15289C28.5097 0.787707 28.5478 0.115348 28.9675 0.0231012L28.9694 0.0221502Z" fill="#7ED957"/>
</svg>
